<?xml version="1.0" encoding="utf-8"?>
<svg version="1.1" xmlns="http://www.w3.org/2000/svg" xmlns:xlink="http://www.w3.org/1999/xlink" x="0px" y="0px"
	 viewBox="0 0 708.2 161.9" style="enable-background:new 0 0 708.2 161.9;" xml:space="preserve" width="708px" height="162px">
<style type="text/css">
	.st0{fill:#FEBC22;}
	.st1{fill:#140A33;}
</style>
<g>
	<path class="st0" d="M170.9,89.7c0,0.4,0,0.8,0,1.2c-0.1,5.2-0.6,10.2-1.6,15.1c-0.5,2.6-1.2,5.2-2,7.7c-0.9,2.9-2,5.8-3.2,8.6
		c-1.3,3-2.8,5.9-4.4,8.7c-1.2,2-2.4,3.9-3.7,5.7l-1.3,1.8c0,0-0.1,0.1-0.1,0.1c-1.6,2.1-3.3,4.2-5.1,6.1l-4.4-6.1l-5.3-7.3
		l-0.1-0.1l-6.5-8.9l-3.5-4.9l0,0c2.4-3.5,4.4-7.3,5.8-11.4c0.7-1.9,1.2-3.9,1.7-6c0.7-3.3,1.1-6.8,1.1-10.3c0-3.5-0.4-7-1.1-10.3
		c-1.4-6.3-4-12.2-7.5-17.4l0,0l-0.4-0.6l-0.5-0.6c-3-4.1-6.6-7.6-10.7-10.6c-4.4-3.2-9.4-5.7-14.8-7.3c-2.9-0.9-5.9-1.5-9-1.8
		c-1.6-0.2-3.3-0.2-4.9-0.2s-3.3,0.1-4.9,0.2c-3.1,0.3-6.1,0.9-9,1.8c-5.4,1.6-10.4,4.1-14.8,7.3c-4.1,3-7.7,6.6-10.7,10.6l-0.5,0.6
		l-0.4,0.6l0,0c-3.6,5.2-6.2,11.1-7.5,17.4c-0.7,3.3-1.1,6.8-1.1,10.3c0,3.5,0.4,7,1.1,10.3c0.4,2,1,4,1.7,6
		c1.4,4.1,3.4,7.9,5.8,11.4l0,0l-3.5,4.9l-6.5,8.9l-0.1,0.1l-5.3,7.3l-4.4,6.1c-1.8-2-3.5-4-5.1-6.1c0,0-0.1-0.1-0.1-0.1l-1.3-1.8
		c-1.3-1.8-2.5-3.8-3.7-5.7c-1.6-2.8-3.1-5.7-4.4-8.7c-1.2-2.8-2.3-5.6-3.2-8.6c-0.8-2.5-1.4-5.1-2-7.7c-1-4.9-1.5-9.9-1.6-15.1
		c0-0.4,0-0.8,0-1.2s0-0.8,0-1.2c0.1-7.9,1.4-15.6,3.6-22.8c1.9-6.1,4.4-11.9,7.6-17.3c1.2-2,2.4-3.9,3.7-5.7l1.3-1.8l0,0
		c1.6-2.2,3.4-4.3,5.2-6.3c3.7-4,7.8-7.7,12.2-10.9c4.4-3.2,9.1-6,14.2-8.3c3.2-1.4,6.4-2.7,9.8-3.7c2.1-0.6,4.3-1.2,6.4-1.7
		c5.3-1.2,10.7-1.8,16.3-1.9c0.4,0,0.8,0,1.2,0s0.8,0,1.2,0c5.6,0.1,11,0.7,16.3,1.9c2.2,0.5,4.3,1,6.4,1.7c3.4,1,6.6,2.3,9.8,3.7
		c5,2.3,9.7,5.1,14.2,8.3c4.4,3.2,8.5,6.9,12.2,10.9c1.8,2,3.6,4.1,5.2,6.3l0,0l1.3,1.8c1.3,1.8,2.5,3.8,3.7,5.7
		c3.2,5.4,5.7,11.2,7.6,17.3c2.2,7.2,3.5,14.9,3.6,22.8C170.9,88.8,170.9,89.3,170.9,89.7z"/>
	<polygon class="st1" points="113.1,122.3 65.7,122.3 69.2,117.4 70.2,116.1 77.5,106 101.2,106 108.6,116.1 109.5,117.4 	"/>
	<polygon class="st1" points="136.8,154.9 42,154.9 49.1,145.2 51,142.5 53.8,138.6 124.9,138.6 127.7,142.5 129.7,145.2 	"/>
</g>
<g>
	<g>
		<path class="st1" d="M307.6,109.6h-78.7c3,13.3,12.7,23.8,31.5,23.8c11.6,0,25.1-4.4,34-10.6l9.9,17.7c-9.7,7.2-26,14.3-44.9,14.3
			c-38.8,0-55.9-26.6-55.9-54c0-30.8,21.5-54,53.6-54c29.1,0,51.1,19.2,51.1,51.9C308.3,102.8,307.9,106.2,307.6,109.6z M228.9,90.8
			H284c-2.1-14.4-12.7-23.4-26.8-23.4C242.8,67.5,232.1,76.6,228.9,90.8z"/>
	</g>
	<g>
		<path class="st1" d="M326.2,109.3V49.2h24.9v60.1c0,13.7,8,23,21.7,23c13.9,0,21.9-9.3,21.9-23V49.2h24.9v60.1
			c0,28.9-17.9,45.6-46.8,45.6C344.3,154.9,326.2,138,326.2,109.3z"/>
	</g>
	<g>
		<path class="st1" d="M491.3,70.5c-2.1-0.6-4.3-0.9-6.8-0.9c-13.9,0-21.9,9.3-21.9,23v60.1h-24.9V92.7c0-28.9,17.9-45.6,46.8-45.6
			c5.3,0,10.2,0.6,14.7,1.7L491.3,70.5z"/>
	</g>
	<g>
		<path class="st1" d="M611.9,49.2v103.2h-23.6v-12.7c-7.8,8.7-18.8,15.2-33.6,15.2c-29.8,0-51.1-23.9-51.1-54.5
			c0-31,21.7-53.6,51.1-53.6c14.8,0,25.7,6.7,33.6,15.6V49.2H611.9z M588.9,100.7c0-17.1-12.4-31.4-30.4-31.4
			c-18.2,0-30.2,14.3-30.2,31.4c0,17.3,12.2,31.5,30.2,31.5C576.5,132.3,588.9,118,588.9,100.7z"/>
	</g>
	<g>
		<path class="st1" d="M632.6,152.4V49.2h24.9v103.2H632.6z"/>
	</g>
	<g>
		<path class="st1" d="M678.1,152.4V8h24.7v144.4H678.1z"/>
	</g>
	<g>
		<g>
			<ellipse class="st0" cx="645.1" cy="21.3" rx="15.8" ry="15.6"/>
		</g>
	</g>
</g>
</svg>
